<svg width="66" height="68" fill="none" xmlns="http://www.w3.org/2000/svg"><path d="M34.472 67.643a33.646 33.646 0 1 1 0-67.292 1.771 1.771 0 0 1 0 3.542 30.104 30.104 0 1 0 21.25 51.248 1.77 1.77 0 0 1 2.953 1.902c-.105.22-.254.417-.438.577a33.328 33.328 0 0 1-23.765 10.023Z" fill="#FF4343"/><path d="M33.41 45.33a1.663 1.663 0 0 1-1.24-.495L18.003 30.668a1.771 1.771 0 0 1 0-2.515 1.806 1.806 0 0 1 2.515 0L33.41 41.08l28.864-28.864a1.778 1.778 0 1 1 2.515 2.514L34.685 44.835a1.77 1.77 0 0 1-1.275.495Z" fill="#FF4343"/></svg>