<svg width="73" height="66" viewBox="0 0 73 66" fill="none" xmlns="http://www.w3.org/2000/svg">
<path d="M59.3956 51.8742H13.8497C10.3367 51.8742 6.9676 50.4787 4.48352 47.9946C1.99944 45.5105 0.603906 42.1414 0.603906 38.6284V13.8367C0.5852 12.0837 0.913745 10.3443 1.57059 8.7189C2.22744 7.09347 3.1996 5.61418 4.43099 4.36633C5.66238 3.11847 7.12863 2.12676 8.74519 1.44839C10.3618 0.770009 12.0966 0.418394 13.8497 0.413818H59.3956C62.9057 0.423166 66.2694 1.82171 68.7515 4.30376C71.2335 6.78581 72.6321 10.1495 72.6414 13.6597V38.6284C72.6414 40.3679 72.2988 42.0903 71.6331 43.6974C70.9675 45.3044 69.9918 46.7646 68.7618 47.9946C67.5318 49.2246 66.0716 50.2003 64.4645 50.866C62.8575 51.5316 61.1351 51.8742 59.3956 51.8742ZM13.8497 3.95548C11.276 3.95548 8.80774 4.97789 6.98786 6.79777C5.16797 8.61765 4.14557 11.0859 4.14557 13.6597V38.6284C4.14557 41.2021 5.16797 43.6704 6.98786 45.4903C8.80774 47.3102 11.276 48.3326 13.8497 48.3326H59.3956C61.9693 48.3326 64.4376 47.3102 66.2575 45.4903C68.0773 43.6704 69.0998 41.2021 69.0998 38.6284V13.8367C69.1233 12.5475 68.8897 11.2666 68.4125 10.0687C67.9354 8.87083 67.2243 7.78005 66.3208 6.86009C65.4174 5.94014 64.3396 5.20945 63.1506 4.71074C61.9615 4.21202 60.685 3.95527 59.3956 3.95548H13.8497Z" fill="#FF4343"/>
<path d="M70.8698 38.4159H2.37398C1.90717 38.4069 1.462 38.2174 1.13185 37.8872C0.801697 37.5571 0.612216 37.1119 0.603149 36.6451C0.603149 36.1754 0.789719 35.725 1.12181 35.3929C1.45391 35.0608 1.90433 34.8743 2.37398 34.8743H70.8698C71.3395 34.8743 71.7899 35.0608 72.122 35.3929C72.4541 35.725 72.6407 36.1754 72.6407 36.6451C72.6407 37.1148 72.4541 37.5652 72.122 37.8973C71.7899 38.2294 71.3395 38.4159 70.8698 38.4159Z" fill="#FF4343"/>
<path d="M36.5752 65.5804C36.1055 65.5804 35.6551 65.3939 35.323 65.0618C34.9909 64.7297 34.8043 64.2793 34.8043 63.8096V50.1034C34.8043 49.6337 34.9909 49.1833 35.323 48.8512C35.6551 48.5191 36.1055 48.3325 36.5752 48.3325C37.0448 48.3325 37.4952 48.5191 37.8273 48.8512C38.1594 49.1833 38.346 49.6337 38.346 50.1034V63.8096C38.346 64.2793 38.1594 64.7297 37.8273 65.0618C37.4952 65.3939 37.0448 65.5804 36.5752 65.5804Z" fill="#FF4343"/>
<path d="M57.0373 65.5805H15.9539C15.4843 65.5805 15.0339 65.3939 14.7018 65.0618C14.3697 64.7297 14.1831 64.2793 14.1831 63.8097C14.1831 63.34 14.3697 62.8896 14.7018 62.5575C15.0339 62.2254 15.4843 62.0388 15.9539 62.0388H57.0373C57.5069 62.0388 57.9573 62.2254 58.2894 62.5575C58.6215 62.8896 58.8081 63.34 58.8081 63.8097C58.8081 64.2793 58.6215 64.7297 58.2894 65.0618C57.9573 65.3939 57.5069 65.5805 57.0373 65.5805Z" fill="#FF4343"/>
</svg>
