<svg width="58" height="76" viewBox="0 0 58 76" fill="none" xmlns="http://www.w3.org/2000/svg">
<path d="M43.3018 53.1909C43.0088 53.1942 42.7194 53.1248 42.4598 52.9888C42.2002 52.8528 41.9784 52.6545 41.8143 52.4117C41.6835 52.215 41.5934 51.994 41.5492 51.7619C41.5051 51.5298 41.5079 51.2912 41.5574 51.0601C41.6069 50.8291 41.7021 50.6103 41.8375 50.4167C41.9729 50.223 42.1456 50.0584 42.3456 49.9325C46.9015 47.0022 50.3859 42.6753 52.2775 37.5994C54.1691 32.5235 54.366 26.9715 52.8389 21.7743C51.3118 16.577 48.1427 12.0141 43.806 8.76827C39.4692 5.52244 34.1979 3.76827 28.781 3.76827C23.3641 3.76827 18.0928 5.52244 13.756 8.76827C9.41922 12.0141 6.25015 16.577 4.72303 21.7743C3.19592 26.9715 3.39289 32.5235 5.28447 37.5994C7.17604 42.6753 10.6605 47.0022 15.2164 49.9325C15.4252 50.0517 15.6076 50.2121 15.7525 50.404C15.8973 50.5959 16.0015 50.8153 16.0588 51.0489C16.1161 51.2824 16.1252 51.5251 16.0856 51.7623C16.046 51.9994 15.9586 52.226 15.8286 52.4283C15.6985 52.6306 15.5287 52.8042 15.3294 52.9387C15.13 53.0732 14.9054 53.1656 14.6692 53.2105C14.433 53.2553 14.1901 53.2516 13.9554 53.1995C13.7206 53.1474 13.499 53.0481 13.3039 52.9075C8.10375 49.5639 4.12629 44.626 1.96681 38.8331C-0.192673 33.0401 -0.418036 26.7036 1.32445 20.7718C3.06693 14.8401 6.68355 9.63219 11.633 5.92752C16.5825 2.22286 22.5986 0.220703 28.781 0.220703C34.9634 0.220703 40.9795 2.22286 45.9289 5.92752C50.8784 9.63219 54.495 14.8401 56.2375 20.7718C57.98 26.7036 57.7546 33.0401 55.5951 38.8331C53.4357 44.626 49.4582 49.5639 44.2581 52.9075C43.9758 53.0975 43.642 53.1964 43.3018 53.1909Z" fill="#FF4343"/>
<path d="M43.3018 67.1804H14.2601C13.7933 67.1714 13.3481 66.9819 13.018 66.6517C12.6878 66.3216 12.4983 65.8764 12.4893 65.4096V51.42C12.4983 50.9532 12.6878 50.508 13.018 50.1779C13.3481 49.8477 13.7933 49.6582 14.2601 49.6492C14.7297 49.6492 15.1802 49.8357 15.5123 50.1678C15.8444 50.4999 16.0309 50.9503 16.0309 51.42V63.6388H41.5309V51.42C41.5309 50.9503 41.7175 50.4999 42.0496 50.1678C42.3817 49.8357 42.8321 49.6492 43.3018 49.6492C43.7686 49.6582 44.2137 49.8477 44.5439 50.1779C44.874 50.508 45.0635 50.9532 45.0726 51.42V65.4096C45.0635 65.8764 44.874 66.3216 44.5439 66.6517C44.2137 66.9819 43.7686 67.1714 43.3018 67.1804Z" fill="#FF4343"/>
<path d="M19.5018 75.8221C19.0321 75.8221 18.5817 75.6355 18.2496 75.3034C17.9175 74.9714 17.731 74.5209 17.731 74.0513V67.818C17.74 67.3511 17.9295 66.906 18.2597 66.5758C18.5898 66.2457 19.035 66.0562 19.5018 66.0471C19.9714 66.0471 20.4219 66.2337 20.7539 66.5658C21.086 66.8979 21.2726 67.3483 21.2726 67.818V74.0513C21.2726 74.5209 21.086 74.9714 20.7539 75.3034C20.4219 75.6355 19.9714 75.8221 19.5018 75.8221Z" fill="#FF4343"/>
<path d="M38.0601 75.8221C37.5905 75.8221 37.1401 75.6355 36.808 75.3034C36.4759 74.9714 36.2893 74.5209 36.2893 74.0513V67.818C36.2893 67.3483 36.4759 66.8979 36.808 66.5658C37.1401 66.2337 37.5905 66.0471 38.0601 66.0471C38.527 66.0562 38.9721 66.2457 39.3023 66.5758C39.6324 66.906 39.8219 67.3511 39.831 67.818V74.0513C39.831 74.5209 39.6444 74.9714 39.3123 75.3034C38.9802 75.6355 38.5298 75.8221 38.0601 75.8221Z" fill="#FF4343"/>
<path d="M28.7808 67.1804C28.3112 67.1804 27.8608 66.9938 27.5287 66.6617C27.1966 66.3296 27.01 65.8792 27.01 65.4096V37.0763C27.01 36.6066 27.1966 36.1562 27.5287 35.8241C27.8608 35.492 28.3112 35.3054 28.7808 35.3054C29.2505 35.3054 29.7009 35.492 30.033 35.8241C30.3651 36.1562 30.5517 36.6066 30.5517 37.0763V65.4096C30.5517 65.8792 30.3651 66.3296 30.033 66.6617C29.7009 66.9938 29.2505 67.1804 28.7808 67.1804Z" fill="#FF4343"/>
</svg>
