<svg width="86" height="86" viewBox="0 0 86 86" fill="none" xmlns="http://www.w3.org/2000/svg">
<path d="M25.8517 75.1381C24.5761 75.1065 23.3405 74.6864 22.31 73.9339C21.223 73.1525 20.4183 72.0402 20.016 70.7634C19.6138 69.4866 19.6359 68.1138 20.0788 66.8506L24.5413 53.1089C24.7157 52.5667 24.7137 51.9832 24.5355 51.4422C24.3573 50.9013 24.0122 50.4308 23.5496 50.0985L11.8621 41.5985C10.8107 40.8293 10.0268 39.75 9.62038 38.5123C9.21399 37.2745 9.20561 35.9406 9.5964 34.6979C9.9872 33.4551 10.7575 32.3661 11.7992 31.5837C12.8408 30.8013 14.1014 30.365 15.4038 30.336H29.8538C30.3972 30.3484 30.9317 30.1961 31.3868 29.899C31.842 29.6018 32.1965 29.1739 32.4038 28.6714L36.8663 14.8943C37.2439 13.6235 38.0257 12.5106 39.0931 11.7244C40.1605 10.9382 41.4553 10.5217 42.7809 10.5381C44.0961 10.5229 45.3814 10.9314 46.4465 11.7031C47.5117 12.4749 48.3002 13.5689 48.6955 14.8235L53.158 28.6714C53.3408 29.2041 53.6841 29.6672 54.1407 29.9969C54.5973 30.3267 55.1448 30.507 55.708 30.5131H70.1934C71.4958 30.5421 72.7563 30.9784 73.798 31.7608C74.8396 32.5432 75.61 33.6322 76.0007 34.875C76.3915 36.1177 76.3832 37.4516 75.9768 38.6893C75.5704 39.9271 74.7864 41.0063 73.735 41.7756L62.0475 50.2756C61.585 50.6079 61.2398 51.0784 61.0616 51.6193C60.8834 52.1603 60.8814 52.7438 61.0559 53.286L65.5538 67.0631C65.9872 68.3306 66.0008 69.704 65.5926 70.9798C65.1843 72.2556 64.3759 73.366 63.2871 74.1464C62.2308 74.9423 60.9441 75.3727 59.6215 75.3727C58.2989 75.3727 57.0122 74.9423 55.9559 74.1464L44.2684 65.6464C43.8076 65.3201 43.2569 65.1449 42.6923 65.1449C42.1277 65.1449 41.577 65.3201 41.1163 65.6464L29.3934 74.1464C28.3432 74.8339 27.1062 75.1803 25.8517 75.1381ZM15.3684 33.9839C14.8 33.9677 14.2421 34.1394 13.7811 34.4723C13.3201 34.8053 12.9817 35.2809 12.8184 35.8256C12.6346 36.3636 12.6283 36.9464 12.8004 37.4883C12.9725 38.0302 13.314 38.5026 13.7746 38.836L25.4975 47.336C26.5819 48.1201 27.3869 49.2307 27.7948 50.5052C28.2026 51.7797 28.1919 53.1513 27.7642 54.4193L23.3017 68.0547C23.1121 68.5922 23.1028 69.1769 23.2754 69.7202C23.4479 70.2634 23.7929 70.7356 24.258 71.0651C24.7099 71.4126 25.2639 71.6011 25.834 71.6011C26.4041 71.6011 26.9581 71.4126 27.41 71.0651L39.2392 62.5651C40.2969 61.7883 41.5749 61.3694 42.8871 61.3694C44.1994 61.3694 45.4774 61.7883 46.535 62.5651L58.1517 71.1714C58.6036 71.5189 59.1577 71.7073 59.7277 71.7073C60.2978 71.7073 60.8519 71.5189 61.3038 71.1714C61.7689 70.8418 62.1138 70.3697 62.2864 69.8264C62.4589 69.2832 62.4497 68.6985 62.26 68.161L57.7975 54.4193C57.3698 53.1513 57.3591 51.7797 57.767 50.5052C58.1748 49.2307 58.9798 48.1201 60.0642 47.336L71.7517 38.836C72.2029 38.5009 72.5378 38.0329 72.7096 37.4978C72.8814 36.9627 72.8813 36.3872 72.7095 35.8521C72.5376 35.317 72.2026 34.8491 71.7513 34.5141C71.3001 34.179 70.7553 33.9936 70.1934 33.9839H55.708C54.4088 33.9677 53.1471 33.546 52.0993 32.7776C51.0516 32.0093 50.2701 30.9327 49.8642 29.6985L45.3309 15.9214C45.1675 15.3767 44.8292 14.9011 44.3682 14.5682C43.9072 14.2352 43.3493 14.0635 42.7809 14.0797C42.2125 14.0635 41.6546 14.2352 41.1936 14.5682C40.7326 14.9011 40.3942 15.3767 40.2309 15.9214L35.6975 29.6985C35.2916 30.9327 34.5101 32.0093 33.4624 32.7776C32.4146 33.546 31.153 33.9677 29.8538 33.9839H15.3684Z" fill="#FF4343"/>
</svg>
