<svg width="68" height="66" fill="none" xmlns="http://www.w3.org/2000/svg"><path d="M16.852 65.138a6.269 6.269 0 0 1-3.542-1.204 6.199 6.199 0 0 1-2.231-7.083l4.462-13.742a2.692 2.692 0 0 0-.991-3.01l-11.688-8.5a6.233 6.233 0 0 1 3.542-11.263h14.45a2.692 2.692 0 0 0 2.55-1.665l4.462-13.777A6.092 6.092 0 0 1 33.781.538a6.127 6.127 0 0 1 5.915 4.285l4.462 13.848a2.727 2.727 0 0 0 2.55 1.842h14.485a6.233 6.233 0 0 1 3.542 11.263l-11.688 8.5a2.692 2.692 0 0 0-.991 3.01l4.498 13.777a6.234 6.234 0 0 1-2.267 7.083 6.091 6.091 0 0 1-7.331 0l-11.688-8.5a2.727 2.727 0 0 0-3.152 0l-11.723 8.5a6.093 6.093 0 0 1-3.541.992ZM6.368 23.984a2.585 2.585 0 0 0-2.55 1.842 2.656 2.656 0 0 0 .957 3.01l11.723 8.5a6.269 6.269 0 0 1 2.266 7.083l-4.462 13.636a2.621 2.621 0 0 0 .956 3.01 2.585 2.585 0 0 0 3.152 0l11.83-8.5a6.163 6.163 0 0 1 7.295 0l11.617 8.606a2.585 2.585 0 0 0 3.152 0 2.621 2.621 0 0 0 .956-3.01l-4.462-13.742a6.268 6.268 0 0 1 2.266-7.083l11.688-8.5a2.692 2.692 0 0 0-1.559-4.852H46.708a6.234 6.234 0 0 1-5.844-4.286L36.331 5.921a2.586 2.586 0 0 0-2.55-1.841 2.586 2.586 0 0 0-2.55 1.841l-4.534 13.777a6.233 6.233 0 0 1-5.843 4.286H6.368Z" fill="#FF4343"/></svg>