<svg width="73" height="56" fill="none" xmlns="http://www.w3.org/2000/svg"><path d="M51.826 39.561h-14.84a1.77 1.77 0 0 1 0-3.542h14.84a1.77 1.77 0 0 1 0 3.542ZM61.813 38.463c-.21.05-.428.05-.637 0a1.735 1.735 0 0 1-1.027-2.267l8.429-22.525a1.771 1.771 0 0 1 2.267-1.027 1.841 1.841 0 0 1 1.062 2.302l-8.43 22.42a1.84 1.84 0 0 1-1.664 1.097ZM25.653 39.136a1.735 1.735 0 0 1-1.665-1.204L12.868 4.144H2.242a1.77 1.77 0 0 1-1.771-1.77A1.806 1.806 0 0 1 2.242.603h11.9a1.806 1.806 0 0 1 1.665 1.204L27.46 36.799a1.736 1.736 0 0 1-1.098 2.23 1.594 1.594 0 0 1-.708.107Z" fill="#FF4343"/><path d="M31.107 55.074a10.625 10.625 0 1 1 0-21.25 10.625 10.625 0 0 1 0 21.25Zm0-17.709a7.083 7.083 0 1 0 0 14.167 7.083 7.083 0 0 0 0-14.167ZM57.705 55.074a10.625 10.625 0 1 1 0-21.251 10.625 10.625 0 0 1 0 21.25Zm0-17.709a7.083 7.083 0 1 0 0 14.167 7.083 7.083 0 0 0 0-14.167Z" fill="#FF4343"/></svg>