<svg width="73" height="66" fill="none" xmlns="http://www.w3.org/2000/svg"><path d="M59.396 51.874H13.85A13.246 13.246 0 0 1 .604 38.628V13.837A13.281 13.281 0 0 1 13.85.414h45.546A13.281 13.281 0 0 1 72.64 13.66v24.968a13.245 13.245 0 0 1-13.245 13.246ZM13.85 3.955a9.704 9.704 0 0 0-9.704 9.705v24.968a9.704 9.704 0 0 0 9.704 9.705h45.546a9.704 9.704 0 0 0 9.704-9.705V13.837a9.703 9.703 0 0 0-9.704-9.882H13.85Z" fill="#FF4343"></path><path d="M70.87 38.416H2.374a1.806 1.806 0 0 1-1.77-1.77 1.77 1.77 0 0 1 1.77-1.772H70.87a1.77 1.77 0 1 1 0 3.542ZM36.575 65.58a1.77 1.77 0 0 1-1.77-1.77V50.103a1.77 1.77 0 0 1 3.541 0V63.81a1.77 1.77 0 0 1-1.77 1.77Z" fill="#FF4343"></path><path d="M57.037 65.58H15.954a1.77 1.77 0 0 1 0-3.541h41.083a1.77 1.77 0 0 1 0 3.541Z" fill="#FF4343"></path></svg>