<svg width="58" height="76" fill="none" xmlns="http://www.w3.org/2000/svg"><path d="M43.302 53.19a1.772 1.772 0 0 1-1.488-.778 1.772 1.772 0 0 1 .532-2.48 25.075 25.075 0 1 0-27.13 0 1.774 1.774 0 0 1 .613 2.496 1.772 1.772 0 0 1-2.525.48 28.616 28.616 0 1 1 30.954 0c-.282.19-.616.288-.956.283Z" fill="#FF4343"></path><path d="M43.302 67.18H14.26a1.806 1.806 0 0 1-1.77-1.77V51.42a1.806 1.806 0 0 1 1.77-1.77 1.77 1.77 0 0 1 1.77 1.77v12.219h25.5V51.42a1.77 1.77 0 0 1 1.772-1.77 1.806 1.806 0 0 1 1.77 1.77v13.99a1.806 1.806 0 0 1-1.77 1.77Z" fill="#FF4343"></path><path d="M19.502 75.822a1.77 1.77 0 0 1-1.771-1.77v-6.234a1.806 1.806 0 0 1 1.77-1.77 1.77 1.77 0 0 1 1.772 1.77v6.233a1.77 1.77 0 0 1-1.771 1.771ZM38.06 75.822a1.77 1.77 0 0 1-1.77-1.77v-6.234a1.77 1.77 0 0 1 1.77-1.77 1.807 1.807 0 0 1 1.771 1.77v6.233a1.77 1.77 0 0 1-1.77 1.771ZM28.78 67.18a1.77 1.77 0 0 1-1.77-1.77V37.076a1.77 1.77 0 0 1 3.542 0V65.41a1.77 1.77 0 0 1-1.771 1.77Z" fill="#FF4343"></path></svg>