<svg width="65" height="64" fill="none" xmlns="http://www.w3.org/2000/svg"><path d="M43.278 63.998H11.686a11.296 11.296 0 0 1-7.916-3.26 11.023 11.023 0 0 1-3.275-7.83V21.803a11.024 11.024 0 0 1 3.288-7.808 11.298 11.298 0 0 1 7.903-3.248h9.456c.47 0 .92.184 1.253.512a1.739 1.739 0 0 1 0 2.474 1.782 1.782 0 0 1-1.253.513h-9.456a7.733 7.733 0 0 0-5.399 2.223 7.546 7.546 0 0 0-2.25 5.334v31.104c0 2.007.804 3.933 2.238 5.356a7.733 7.733 0 0 0 5.411 2.236h31.592c1.01 0 2.008-.197 2.94-.578a7.69 7.69 0 0 0 2.494-1.646 7.585 7.585 0 0 0 1.666-2.463 7.511 7.511 0 0 0 .585-2.906V46.68c0-.464.187-.91.519-1.237a1.782 1.782 0 0 1 2.504 0c.332.328.519.773.519 1.237v6.227c0 2.942-1.183 5.763-3.288 7.843a11.298 11.298 0 0 1-7.94 3.248ZM52.593 23.064c-.458 0-.898-.175-1.228-.488a1.74 1.74 0 0 1-.543-1.192 7.32 7.32 0 0 0-1.205-3.639 7.252 7.252 0 0 0-2.266-2.239 7.749 7.749 0 0 0-3.542-1.19 1.79 1.79 0 0 1-1.232-.56 1.748 1.748 0 0 1-.468-1.259c-.01-.443.154-.872.458-1.198a1.744 1.744 0 0 1 1.171-.551c1.967.087 3.874.69 5.525 1.75a10.562 10.562 0 0 1 3.33 3.288 10.825 10.825 0 0 1 1.77 5.458 1.73 1.73 0 0 1-.468 1.258 1.77 1.77 0 0 1-1.232.562h-.07Z" fill="#FF4343"></path><path d="M36.194 39.122h-8.748c-.47 0-.92-.184-1.252-.512a1.738 1.738 0 0 1-.518-1.237v-8.817a1.738 1.738 0 0 1 .496-1.224L43.88 9.838a1.782 1.782 0 0 1 2.479 0l3.081 3.044c.325.327.507.767.507 1.225a1.739 1.739 0 0 1-1.083 1.607 1.79 1.79 0 0 1-1.938-.383l-1.807-1.75-16.008 15.71v6.333h6.41L51.566 19.74l-1.806-1.785a1.739 1.739 0 0 1-.506-1.224 1.739 1.739 0 0 1 1.082-1.608 1.79 1.79 0 0 1 1.939.383l3.045 3.009a1.748 1.748 0 0 1 .524 1.242 1.731 1.731 0 0 1-.524 1.242L37.611 38.493a1.874 1.874 0 0 1-1.417.63Z" fill="#FF4343"></path><path d="M54.186 21.489c-.473.005-.93-.17-1.275-.49l-3.046-3.044a1.738 1.738 0 0 1 0-2.449 1.771 1.771 0 0 1 1.258-.517 1.788 1.788 0 0 1 1.257.517l1.806 1.785 6.375-6.333-6.375-6.298-6.41 6.298 1.806 1.784a1.739 1.739 0 0 1-.576 2.832 1.79 1.79 0 0 1-1.939-.383l-3.045-3.009a1.645 1.645 0 0 1-.532-1.224 1.695 1.695 0 0 1 .532-1.26l8.89-8.746a1.772 1.772 0 0 1 1.256-.518 1.79 1.79 0 0 1 1.258.518l8.89 8.746a1.773 1.773 0 0 1 0 2.484L55.425 21a1.783 1.783 0 0 1-1.24.49Z" fill="#FF4343"></path></svg>