<svg width="68" height="66" viewBox="0 0 68 66" fill="none" xmlns="http://www.w3.org/2000/svg">
<path d="M16.8517 65.1381C15.5761 65.1065 14.3405 64.6864 13.31 63.9339C12.223 63.1525 11.4183 62.0402 11.016 60.7634C10.6138 59.4866 10.6359 58.1138 11.0788 56.8506L15.5413 43.1089C15.7157 42.5667 15.7137 41.9832 15.5355 41.4422C15.3573 40.9013 15.0122 40.4308 14.5496 40.0985L2.86212 31.5985C1.81073 30.8293 1.02677 29.75 0.620381 28.5123C0.213994 27.2745 0.205609 25.9406 0.596405 24.6979C0.9872 23.4551 1.75753 22.3661 2.79917 21.5837C3.8408 20.8013 5.10138 20.365 6.40379 20.336H20.8538C21.3972 20.3484 21.9317 20.1961 22.3868 19.899C22.842 19.6018 23.1965 19.1739 23.4038 18.6714L27.8663 4.89431C28.2439 3.62352 29.0257 2.51058 30.0931 1.72439C31.1605 0.938209 32.4553 0.521696 33.7809 0.538062C35.0961 0.522883 36.3814 0.931374 37.4465 1.70313C38.5117 2.47488 39.3002 3.56893 39.6955 4.82348L44.158 18.6714C44.3408 19.2041 44.6841 19.6672 45.1407 19.9969C45.5973 20.3267 46.1448 20.507 46.708 20.5131H61.1934C62.4958 20.5421 63.7563 20.9784 64.798 21.7608C65.8396 22.5432 66.61 23.6322 67.0007 24.875C67.3915 26.1177 67.3832 27.4516 66.9768 28.6893C66.5704 29.9271 65.7864 31.0063 64.735 31.7756L53.0475 40.2756C52.585 40.6079 52.2398 41.0784 52.0616 41.6193C51.8834 42.1603 51.8814 42.7438 52.0559 43.286L56.5538 57.0631C56.9872 58.3306 57.0008 59.704 56.5926 60.9798C56.1843 62.2556 55.3759 63.366 54.2871 64.1464C53.2308 64.9423 51.9441 65.3727 50.6215 65.3727C49.2989 65.3727 48.0122 64.9423 46.9559 64.1464L35.2684 55.6464C34.8076 55.3201 34.2569 55.1449 33.6923 55.1449C33.1277 55.1449 32.577 55.3201 32.1163 55.6464L20.3934 64.1464C19.3432 64.8339 18.1062 65.1803 16.8517 65.1381ZM6.36837 23.9839C5.79996 23.9677 5.24206 24.1394 4.78108 24.4723C4.32009 24.8053 3.98172 25.2809 3.81837 25.8256C3.63458 26.3636 3.62828 26.9464 3.80042 27.4883C3.97255 28.0302 4.31402 28.5026 4.77462 28.836L16.4975 37.336C17.5819 38.1201 18.3869 39.2307 18.7948 40.5052C19.2026 41.7797 19.1919 43.1513 18.7642 44.4193L14.3017 58.0547C14.1121 58.5922 14.1028 59.1769 14.2754 59.7202C14.4479 60.2634 14.7929 60.7356 15.258 61.0651C15.7099 61.4126 16.2639 61.6011 16.834 61.6011C17.4041 61.6011 17.9581 61.4126 18.41 61.0651L30.2392 52.5651C31.2969 51.7883 32.5749 51.3694 33.8871 51.3694C35.1994 51.3694 36.4774 51.7883 37.535 52.5651L49.1517 61.1714C49.6036 61.5189 50.1577 61.7073 50.7277 61.7073C51.2978 61.7073 51.8519 61.5189 52.3038 61.1714C52.7689 60.8418 53.1138 60.3697 53.2864 59.8264C53.4589 59.2832 53.4497 58.6985 53.26 58.161L48.7975 44.4193C48.3698 43.1513 48.3591 41.7797 48.767 40.5052C49.1748 39.2307 49.9798 38.1201 51.0642 37.336L62.7517 28.836C63.2029 28.5009 63.5378 28.0329 63.7096 27.4978C63.8814 26.9627 63.8813 26.3872 63.7095 25.8521C63.5376 25.317 63.2026 24.8491 62.7513 24.5141C62.3001 24.179 61.7553 23.9936 61.1934 23.9839H46.708C45.4088 23.9677 44.1471 23.546 43.0993 22.7776C42.0516 22.0093 41.2701 20.9327 40.8642 19.6985L36.3309 5.92139C36.1675 5.37672 35.8292 4.90109 35.3682 4.56815C34.9072 4.23522 34.3493 4.06355 33.7809 4.07973C33.2125 4.06355 32.6546 4.23522 32.1936 4.56815C31.7326 4.90109 31.3942 5.37672 31.2309 5.92139L26.6975 19.6985C26.2916 20.9327 25.5101 22.0093 24.4624 22.7776C23.4146 23.546 22.153 23.9677 20.8538 23.9839H6.36837Z" fill="#FF4343"></path>
</svg>
